<svg width="24" height="24" viewBox="0 0 24 24" fill="none" xmlns="http://www.w3.org/2000/svg">
<g clip-path="url(#clip0_41_178)">
<path d="M12 3C17.79 3 22.5 6.3645 22.5 10.5C22.5 14.6355 17.79 18 12 18L11.3783 18.0023C10.9657 18.0023 10.6965 17.991 10.275 17.928L9.435 17.808L8.89575 18.4605C8.6475 18.7598 7.383 19.7992 5.98725 20.4683C6.27075 19.7175 6.48 18.8977 6.4995 18.087L6.507 18.0427V16.9965L5.6895 16.5795C3.027 15.2175 1.50075 13.002 1.50075 10.5C1.50075 6.3645 6.21 3 12 3ZM12 1.5C5.3715 1.5 0 5.52975 0 10.5C0 13.5953 1.8345 16.293 5.00625 17.9145C5.00625 17.934 5.00025 17.9475 5.00025 17.9692C5.00025 19.314 4.2465 20.793 3.80475 21.5535H3.80625C3.77175 21.6353 3.75075 21.7253 3.75075 21.8212C3.75075 22.1985 4.0545 22.5007 4.431 22.5007C4.48725 22.5007 4.578 22.4895 4.61025 22.4895C4.6185 22.4895 4.62225 22.4895 4.62225 22.4918C6.966 22.1085 9.543 20.0385 10.056 19.4137C10.5833 19.4925 10.9388 19.5037 11.3798 19.5037C11.5658 19.5037 11.766 19.5015 12.0015 19.5015C18.6285 19.5015 24.0015 15.4725 24.0015 10.5015C24.0015 5.53125 18.6285 1.5015 12.0015 1.5015L12 1.5Z" fill="white"/>
</g>
<defs>
<clipPath id="clip0_41_178">
<rect width="24" height="24" fill="white"/>
</clipPath>
</defs>
</svg>
