<!DOCTYPE svg PUBLIC "-//W3C//DTD SVG 1.1//EN" "http://www.w3.org/Graphics/SVG/1.1/DTD/svg11.dtd">
<!-- Uploaded to: SVG Repo, www.svgrepo.com, Transformed by: SVG Repo Mixer Tools -->
<svg fill="#F72E1B" width="800px" height="800px" viewBox="-3.2 -3.2 38.40 38.40" version="1.1" xmlns="http://www.w3.org/2000/svg" stroke="#F72E1B">
<g id="SVGRepo_bgCarrier" stroke-width="0"/>
<g id="SVGRepo_tracerCarrier" stroke-linecap="round" stroke-linejoin="round"/>
<g id="SVGRepo_iconCarrier"> <title>exclamation-round</title> <path d="M0 16q0 3.264 1.28 6.208t3.392 5.12 5.12 3.424 6.208 1.248 6.208-1.248 5.12-3.424 3.392-5.12 1.28-6.208-1.28-6.208-3.392-5.12-5.088-3.392-6.24-1.28q-3.264 0-6.208 1.28t-5.12 3.392-3.392 5.12-1.28 6.208zM4 16q0-3.264 1.6-6.016t4.384-4.352 6.016-1.632 6.016 1.632 4.384 4.352 1.6 6.016-1.6 6.048-4.384 4.352-6.016 1.6-6.016-1.6-4.384-4.352-1.6-6.048zM12 10.016q0 0.992 0.512 2.976t0.992 3.52l0.512 1.504q0 0.832 0.576 1.408t1.408 0.576 1.408-0.576 0.608-1.408l1.984-8q0-1.664-1.184-2.848t-2.816-1.152-2.816 1.152-1.184 2.848zM14.016 24q0 0.832 0.576 1.44t1.408 0.576 1.408-0.576 0.608-1.44-0.608-1.408-1.408-0.576-1.408 0.576-0.576 1.408z"/> </g>
</svg>